<svg width="185" height="43" viewBox="0 0 185 43" fill="none" xmlns="http://www.w3.org/2000/svg">
<path fill-rule="evenodd" clip-rule="evenodd" d="M43.1909 27.6924V30.6147H28.9817C27.8562 32.5629 25.7459 33.9545 23.3543 33.9545C19.8371 33.9545 17.0234 31.1713 17.0234 27.6924H43.1909Z" fill="#FEFEFE"/>
<path fill-rule="evenodd" clip-rule="evenodd" d="M9.00385 0H34.4678C37.0002 0 39.2511 0.974109 40.7987 2.64401C42.4869 4.31392 43.4717 6.54045 43.4717 8.90615V34.0938C43.4717 36.5987 42.4869 38.8252 40.7987 40.356C39.1105 42.0259 36.8595 43 34.4678 43H9.00385C6.47152 43 4.22056 42.0259 2.67302 40.356C0.984798 38.6861 0 36.4595 0 34.0938V8.90615C0 6.4013 0.984798 4.17476 2.67302 2.64401C4.22056 0.974109 6.47152 0 9.00385 0ZM34.4678 2.78317H9.00385C7.31563 2.78317 5.76809 3.47896 4.64261 4.59223C3.51713 5.7055 2.8137 7.23625 2.8137 8.90615V34.0938C2.8137 35.7638 3.51713 37.2945 4.64261 38.4078C5.76809 39.521 7.31563 40.2168 9.00385 40.2168H34.4678C36.1561 40.2168 37.7036 39.521 38.8291 38.4078C39.9546 37.2945 40.658 35.7638 40.658 34.0938V8.90615C40.658 7.23625 39.9546 5.7055 38.8291 4.59223C37.7036 3.47896 36.1561 2.78317 34.4678 2.78317Z" fill="#76D076"/>
<path fill-rule="evenodd" clip-rule="evenodd" d="M20.2557 0.140503C23.4914 5.70685 30.1036 9.60329 31.3698 12.8039C32.4953 15.8654 31.5105 19.0661 27.9933 19.6227V22.2667C27.9933 23.38 27.1492 24.3541 26.0238 24.4932C25.3203 24.6324 24.6169 24.6324 23.6321 24.7716H10.6891C10.6891 31.8687 16.4572 37.7133 23.7728 37.7133C25.1796 37.7133 26.5865 37.435 27.8527 37.0175C27.8527 37.1567 27.8527 37.2958 27.8527 37.435V42.3055C27.8527 42.4447 27.8527 42.5839 27.8527 42.723H8.15675C3.79551 42.723 0.137695 39.1049 0.137695 34.791V8.2117C0.137695 3.89779 3.79551 0.279662 8.15675 0.279662H20.2557V0.140503ZM22.3659 13.3606H19.2709C19.2709 14.0564 18.9895 14.613 18.5674 15.1696C18.1454 15.5871 17.442 15.8654 16.7385 15.8654C16.0351 15.8654 15.4724 15.5871 14.9096 15.1696C14.4876 14.7522 14.2062 14.0564 14.2062 13.3606H11.1111C11.1111 14.8913 11.8146 16.2829 12.7994 17.3962C13.7842 18.3703 15.191 19.0661 16.8792 19.0661C18.4268 19.0661 19.8336 18.3703 20.9591 17.3962C21.8032 16.4221 22.3659 14.8913 22.3659 13.3606Z" fill="#76D076"/>
<path fill-rule="evenodd" clip-rule="evenodd" d="M61.3373 26.0224C59.6491 26.0224 58.3829 25.3266 57.8202 24.0742L67.6681 22.126C67.6681 17.9512 64.573 15.4464 60.7745 15.4464C56.6947 15.4464 53.5996 18.2296 53.5996 22.2652C53.5996 26.1616 56.554 29.0839 61.1966 29.0839C63.5883 29.0839 65.4171 28.3881 66.6833 26.9965L64.573 24.77C63.7289 25.605 62.7441 26.0224 61.3373 26.0224ZM60.6339 18.3687C62.1814 18.3687 63.4476 19.3428 63.7289 20.5952L57.2574 21.8477C57.3981 19.6211 58.805 18.3687 60.6339 18.3687ZM80.3298 15.7247V17.1163C79.345 16.003 77.9381 15.5855 76.3906 15.5855C72.5921 15.5855 69.7784 18.2295 69.7784 22.4043C69.7784 26.5791 72.7328 29.2231 76.3906 29.2231C78.2195 29.2231 79.6263 28.6664 80.6111 27.5532V29.0839H84.269V15.8639H80.3298V15.7247ZM76.9533 26.0224C74.9837 26.0224 73.5769 24.6308 73.5769 22.4043C73.5769 20.1778 75.1244 18.7862 76.9533 18.7862C78.9229 18.7862 80.3298 20.1778 80.3298 22.4043C80.3298 24.6308 78.9229 26.0224 76.9533 26.0224ZM95.2424 25.605C94.8203 25.8833 94.2576 26.1616 93.6949 26.1616C92.7101 26.1616 92.0066 25.605 92.0066 24.3525V18.9253H95.2424V16.003H92.0066V12.8024H88.0675V24.3525C88.0675 27.5532 89.8964 29.0839 92.9914 29.0839C94.1169 29.0839 95.3831 28.8056 96.0865 28.249L95.2424 25.605ZM126.052 15.7247V17.3946C125.068 16.1422 123.52 15.4464 121.691 15.4464C118.033 15.4464 115.079 17.9512 115.079 21.8477C115.079 25.7441 118.033 28.249 121.691 28.249C123.379 28.249 124.927 27.6923 125.912 26.5791V27.1357C125.912 29.5014 124.786 30.7538 121.973 30.7538C120.284 30.7538 118.455 30.1972 117.189 29.2231L115.642 32.0063C117.189 33.2587 119.722 33.8153 122.254 33.8153C127.037 33.8153 129.71 31.5888 129.71 26.5791V15.5855H126.052V15.7247ZM122.395 25.1875C120.425 25.1875 118.877 23.9351 118.877 21.9868C118.877 20.0386 120.425 18.7862 122.395 18.7862C124.364 18.7862 125.912 20.0386 125.912 21.9868C125.912 23.7959 124.364 25.1875 122.395 25.1875ZM137.448 17.3946V15.5855H133.79V28.8056H137.729V22.5435C137.729 20.0386 139.136 18.9253 141.246 18.9253C141.528 18.9253 141.809 18.9253 142.091 18.9253V15.4464C139.98 15.4464 138.433 16.1422 137.448 17.3946ZM154.33 15.7247V17.1163C153.345 16.003 151.938 15.5855 150.391 15.5855C146.592 15.5855 143.779 18.2295 143.779 22.4043C143.779 26.5791 146.733 29.2231 150.391 29.2231C152.22 29.2231 153.627 28.6664 154.611 27.5532V29.0839H158.269V15.8639H154.33V15.7247ZM150.954 26.0224C148.984 26.0224 147.577 24.6308 147.577 22.4043C147.577 20.1778 149.125 18.7862 150.954 18.7862C152.923 18.7862 154.33 20.1778 154.33 22.4043C154.33 24.6308 152.923 26.0224 150.954 26.0224ZM179.231 15.4464C177.262 15.4464 175.433 16.2813 174.448 17.6729C173.463 16.2813 171.916 15.4464 170.087 15.4464C168.399 15.4464 166.851 16.003 165.866 17.1163V15.5855H162.208V28.8056H166.148V22.2652C166.148 19.8995 167.414 18.7862 169.102 18.7862C170.65 18.7862 171.634 19.7603 171.634 21.8477V28.8056H175.574V22.2652C175.574 19.8995 176.84 18.7862 178.528 18.7862C180.075 18.7862 181.06 19.7603 181.06 21.8477V28.8056H184.999V21.291C184.718 17.3946 182.467 15.4464 179.231 15.4464Z" fill="#FEFEFE"/>
<path fill-rule="evenodd" clip-rule="evenodd" d="M108.328 9.32337V10.715C107.343 9.60168 105.936 9.1842 104.389 9.1842C100.59 9.1842 97.7764 11.8282 97.7764 16.003C97.7764 20.1777 100.731 22.8217 104.389 22.8217C106.217 22.8217 107.624 22.2651 108.609 21.1518V22.6826H112.267V9.46252H108.328V9.32337ZM104.951 19.6211C102.982 19.6211 101.575 18.2295 101.575 16.003C101.575 13.7764 103.122 12.3849 104.951 12.3849C106.921 12.3849 108.328 13.7764 108.328 16.003C108.328 18.2295 106.921 19.6211 104.951 19.6211Z" fill="#76D076"/>
<path fill-rule="evenodd" clip-rule="evenodd" d="M112.127 24.7699C111.986 26.7181 111.142 28.388 109.735 29.6404C108.328 30.8929 106.499 31.7278 104.53 31.7278C102.419 31.7278 100.59 30.8929 99.1836 29.5013C97.9174 28.2489 97.0733 26.579 96.9326 24.7699H100.872C101.012 25.6048 101.435 26.3006 101.997 26.8573C102.701 27.5531 103.686 27.9705 104.67 27.9705C105.655 27.9705 106.64 27.5531 107.343 26.9964C107.906 26.4398 108.328 25.744 108.469 24.9091H112.127V24.7699Z" fill="#FEFEFE"/>
</svg>
