<svg width="150" height="35" viewBox="0 0 150 35" fill="none" xmlns="http://www.w3.org/2000/svg">
<path fill-rule="evenodd" clip-rule="evenodd" d="M46.1149 21.3376C44.6983 21.3376 43.6358 20.7513 43.1636 19.6959L51.4272 18.0543C51.4272 14.5365 48.8301 12.4258 45.6427 12.4258C42.2192 12.4258 39.6221 14.771 39.6221 18.1715C39.6221 21.4548 42.1011 23.9173 45.9968 23.9173C48.0037 23.9173 49.5384 23.331 50.6008 22.1584L48.8301 20.2822C48.2398 20.9858 47.4134 21.3376 46.1149 21.3376ZM45.6427 14.8882C46.9412 14.8882 48.0037 15.7091 48.2398 16.7644L42.9275 17.8198C42.9275 15.9436 44.108 14.8882 45.6427 14.8882ZM62.1698 12.6603V13.8329C61.3435 12.8948 60.163 12.543 58.8644 12.543C55.677 12.543 53.316 14.771 53.316 18.2888C53.316 21.8066 55.7951 24.0346 58.8644 24.0346C60.3991 24.0346 61.5796 23.5655 62.4059 22.6274V23.9173H65.3572V12.7776H62.1698V12.6603ZM59.3366 21.2203C57.6839 21.2203 56.5034 20.0477 56.5034 18.1715C56.5034 16.2954 57.8019 15.1228 59.3366 15.1228C60.9893 15.1228 62.1698 16.2954 62.1698 18.1715C62.1698 20.0477 60.9893 21.2203 59.3366 21.2203ZM74.6833 20.8685C74.3291 21.103 73.8569 21.3376 73.3847 21.3376C72.5583 21.3376 71.9681 20.8685 71.9681 19.8132V15.24H74.6833V12.7776H71.9681V10.0806H68.6626V19.8132C68.6626 22.5102 70.1973 23.8 72.7944 23.8C73.7388 23.8 74.8013 23.5655 75.3916 23.0965L74.6833 20.8685ZM100.536 12.6603V14.0674C99.7101 13.0121 98.4115 12.4258 96.8769 12.4258C93.8075 12.4258 91.3285 14.5365 91.3285 17.8198C91.3285 21.1031 93.8075 23.2137 96.8769 23.2137C98.2935 23.2137 99.592 22.7447 100.418 21.8066V22.2757C100.418 24.2691 99.474 25.3244 97.113 25.3244C95.6964 25.3244 94.1617 24.8554 93.0992 24.0346L91.8007 26.3798C93.0992 27.4351 95.2241 27.9042 97.3491 27.9042C101.363 27.9042 103.606 26.028 103.606 21.8066V12.543H100.536V12.6603ZM97.4671 20.5167C95.8144 20.5167 94.5158 19.4614 94.5158 17.8198C94.5158 16.1781 95.8144 15.1228 97.4671 15.1228C99.1198 15.1228 100.418 16.1781 100.418 17.8198C100.418 19.4614 99.1198 20.5167 97.4671 20.5167ZM110.099 14.0674V12.543H107.029V23.6828H110.217V18.4061C110.217 16.2954 111.397 15.3573 113.168 15.3573C113.404 15.3573 113.64 15.3573 113.876 15.3573V12.4258C112.224 12.4258 110.925 13.0121 110.099 14.0674ZM124.265 12.6603V13.8329C123.438 12.8948 122.258 12.543 120.959 12.543C117.772 12.543 115.411 14.771 115.411 18.2888C115.411 21.8066 117.89 24.0346 120.959 24.0346C122.494 24.0346 123.674 23.5655 124.501 22.6274V23.9173H127.57V12.7776H124.265V12.6603ZM121.431 21.2203C119.779 21.2203 118.598 20.0477 118.598 18.1715C118.598 16.2954 119.897 15.1228 121.431 15.1228C123.084 15.1228 124.265 16.2954 124.265 18.1715C124.265 20.0477 123.084 21.2203 121.431 21.2203ZM145.16 12.4258C143.507 12.4258 141.972 13.1293 141.146 14.3019C140.32 13.1293 139.021 12.4258 137.486 12.4258C136.07 12.4258 134.771 12.8948 133.945 13.8329V12.543H130.876V23.6828H134.181V18.1715C134.181 16.1781 135.243 15.24 136.66 15.24C137.959 15.24 138.785 16.0609 138.785 17.8198V23.6828H142.09V18.1715C142.09 16.1781 143.153 15.24 144.57 15.24C145.868 15.24 146.694 16.0609 146.694 17.8198V23.6828H150V17.3507C149.764 13.9502 147.875 12.4258 145.16 12.4258Z" fill="#76D076"/>
<path fill-rule="evenodd" clip-rule="evenodd" d="M85.6615 7.26643V8.43903C84.8351 7.50095 83.6546 7.14917 82.356 7.14917C79.1686 7.14917 76.8076 9.37712 76.8076 12.8949C76.8076 16.4127 79.2867 18.6407 82.356 18.6407C83.8907 18.6407 85.0712 18.1717 85.8976 17.2336V18.5234H88.9669V7.38369H85.6615V7.26643ZM82.8282 15.8264C81.1755 15.8264 79.995 14.6538 79.995 12.7777C79.995 10.9015 81.2936 9.7289 82.8282 9.7289C84.4809 9.7289 85.6615 10.9015 85.6615 12.7777C85.6615 14.7711 84.4809 15.8264 82.8282 15.8264Z" fill="#232323"/>
<path fill-rule="evenodd" clip-rule="evenodd" d="M88.8491 20.1648C88.7311 21.8064 88.0228 23.2136 86.8423 24.2689C85.6618 25.3243 84.1271 26.0278 82.4744 26.0278C80.7036 26.0278 79.1689 25.3243 77.9884 24.1517C76.926 23.0963 76.2177 21.6892 76.0996 20.1648H79.287C79.405 20.8684 79.7592 21.4547 80.2314 21.9237C80.8217 22.51 81.648 22.8618 82.4744 22.8618C83.3007 22.8618 84.1271 22.51 84.7173 22.041C85.1895 21.5719 85.5437 20.9856 85.6618 20.2821H88.8491V20.1648Z" fill="#76D076"/>
<path fill-rule="evenodd" clip-rule="evenodd" d="M35.1199 22.5408V24.9194H23.4886C22.5764 26.5052 20.8659 27.6379 18.9274 27.6379C16.0765 27.6379 13.7959 25.3725 13.7959 22.5408H35.1199Z" fill="#232323"/>
<path fill-rule="evenodd" clip-rule="evenodd" d="M7.29807 0H27.9379C29.9905 0 31.815 0.79288 33.0694 2.1521C34.4378 3.51133 35.236 5.32362 35.236 7.24919V27.7508C35.236 29.7896 34.4378 31.6019 33.0694 32.8479C31.701 34.2071 29.8765 35 27.9379 35H7.29807C5.24549 35 3.42097 34.2071 2.16661 32.8479C0.798226 31.4887 0 29.6764 0 27.7508V7.24919C0 5.21036 0.798226 3.39806 2.16661 2.1521C3.535 0.79288 5.35952 0 7.29807 0ZM27.9379 2.26537H7.29807C5.92968 2.26537 4.67532 2.83171 3.76307 3.73786C2.85081 4.64401 2.28065 5.88997 2.28065 7.24919V27.7508C2.28065 29.11 2.85081 30.356 3.76307 31.2621C4.67532 32.1683 5.92968 32.7346 7.29807 32.7346H27.9379C29.3063 32.7346 30.5607 32.1683 31.4729 31.2621C32.3852 30.356 32.9553 29.11 32.9553 27.7508V7.24919C32.9553 5.88997 32.3852 4.64401 31.4729 3.73786C30.5607 2.83171 29.3063 2.26537 27.9379 2.26537Z" fill="#76D076"/>
<path fill-rule="evenodd" clip-rule="evenodd" d="M16.5351 0.112549C19.1579 4.64329 24.5174 7.81481 25.5437 10.42C26.456 12.9119 25.6577 15.5171 22.8069 15.9702V18.1223C22.8069 19.0284 22.1227 19.8213 21.2105 19.9346C20.6403 20.0478 20.0701 20.0478 19.2719 20.1611H8.78094C8.78094 25.9378 13.4563 30.6951 19.3859 30.6951C20.5263 30.6951 21.6666 30.4685 22.6929 30.1287C22.6929 30.242 22.6929 30.3553 22.6929 30.4685V34.4329C22.6929 34.5462 22.6929 34.6595 22.6929 34.7727H6.72836C3.19335 34.7727 0.228516 31.8278 0.228516 28.3164V6.56886C0.228516 3.05753 3.19335 0.112549 6.72836 0.112549H16.5351ZM18.2456 10.8731H15.7369C15.7369 11.4394 15.5088 11.8925 15.1667 12.3456C14.8247 12.6854 14.2545 12.9119 13.6843 12.9119C13.1142 12.9119 12.658 12.6854 12.2019 12.3456C11.8598 12.0057 11.6317 11.4394 11.6317 10.8731H9.12304C9.12304 12.119 9.6932 13.2517 10.4914 14.1579C11.2897 14.9507 12.43 15.5171 13.7984 15.5171C15.0527 15.5171 16.193 14.9507 17.1053 14.1579C17.6755 13.2517 18.2456 12.119 18.2456 10.8731Z" fill="#76D076"/>
</svg>
